<?xml version="1.0" standalone="no"?>
<!DOCTYPE svg PUBLIC "-//W3C//DTD SVG 20010904//EN"
 "http://www.w3.org/TR/2001/REC-SVG-20010904/DTD/svg10.dtd">
<svg version="1.0" xmlns="http://www.w3.org/2000/svg"
 width="516.000000pt" height="483.000000pt" viewBox="0 0 516.000000 483.000000"
 preserveAspectRatio="xMidYMid meet">

<g transform="translate(0.000000,483.000000) scale(0.100000,-0.100000)"
fill="#000000" stroke="none">
<path d="M2506 4699 c-81 -13 -191 -74 -257 -141 -33 -33 -59 -64 -59 -70 0
-5 9 -12 20 -15 24 -6 24 -14 5 -118 -18 -101 -18 -266 -1 -415 14 -114 13
-130 -4 -130 -14 0 -58 92 -92 190 -47 134 -48 206 -4 355 4 11 -3 1 -14 -23
-50 -103 -63 -291 -30 -430 11 -46 20 -85 20 -86 0 -7 -56 -17 -120 -23 -36
-3 -69 -10 -73 -17 -5 -6 -6 -3 -3 9 32 123 38 176 33 285 -6 128 -41 263 -77
295 -24 22 -24 20 -5 -35 23 -64 19 -171 -10 -280 -40 -149 -50 -144 -50 23 0
180 -16 245 -84 338 -59 79 -140 137 -245 172 -73 25 -77 25 -148 10 -122 -25
-180 -64 -267 -182 -28 -38 -51 -71 -51 -74 0 -12 174 43 194 61 13 12 49 25
95 32 166 27 276 -25 346 -164 31 -63 33 -163 5 -246 -11 -30 -18 -46 -17 -35
3 22 -25 52 -60 66 -15 5 -24 20 -29 44 -3 19 -12 35 -19 35 -7 0 -16 15 -19
33 -3 19 -14 42 -24 53 -9 11 -22 29 -28 40 -13 23 -44 31 -54 13 -9 -13 7
-55 27 -77 7 -7 13 -17 13 -21 0 -4 8 -16 19 -27 37 -40 43 -63 36 -142 -11
-139 -27 -203 -73 -295 -24 -49 -45 -96 -47 -105 -2 -10 -4 -19 -4 -22 -6 -30
-20 -30 -117 -5 -370 97 -707 -15 -873 -290 -63 -104 -100 -268 -87 -385 12
-104 43 -232 65 -260 11 -16 21 -34 21 -39 0 -37 136 -140 199 -150 61 -10 52
-36 -22 -60 -126 -42 -218 -110 -289 -215 -91 -132 -124 -294 -94 -464 9 -50
16 -106 16 -124 l0 -31 -22 19 c-21 19 -21 19 1 -22 31 -56 157 -201 180 -209
11 -3 29 -22 40 -41 15 -26 38 -42 87 -64 36 -17 75 -30 86 -30 10 0 28 -5 39
-10 18 -10 19 -24 19 -249 0 -261 12 -368 54 -472 62 -151 177 -289 289 -345
133 -68 57 -65 1640 -63 788 1 1471 6 1519 10 144 15 258 62 341 141 57 54 51
54 -35 -4 -81 -54 -137 -76 -242 -94 -82 -15 -232 -16 -1481 -10 -868 4 -1421
11 -1472 17 -103 13 -223 51 -236 74 -8 15 -7 17 9 10 25 -10 181 -6 208 6 30
13 60 32 68 44 4 6 11 10 15 11 31 3 61 26 68 51 7 26 8 26 15 8 7 -17 9 -17
9 -2 1 9 6 17 12 17 5 0 15 13 20 30 6 16 20 32 30 35 16 5 18 10 9 20 -7 8
-9 24 -5 36 6 19 4 21 -13 17 -16 -5 -20 -2 -17 14 3 16 0 19 -16 15 -15 -4
-18 -2 -10 7 7 8 5 12 -10 13 -11 1 -17 -2 -14 -8 8 -12 5 -11 -34 2 -17 6
-31 15 -31 21 0 5 -4 7 -9 3 -5 -3 -13 0 -16 6 -4 5 -14 8 -23 4 -9 -3 -14 -3
-10 0 3 3 -12 23 -33 44 -22 21 -39 45 -39 54 0 10 -4 17 -9 17 -5 0 -7 9 -4
20 5 19 32 29 34 13 8 -89 20 -110 75 -134 52 -23 126 -29 132 -11 2 8 14 1
32 -18 15 -16 39 -30 52 -31 12 0 30 -2 39 -4 9 -1 38 1 65 6 55 10 94 45 94
85 0 29 15 31 30 4 23 -42 116 -17 168 46 37 45 41 76 11 95 -19 13 -16 14 33
14 29 0 62 2 73 5 12 3 19 0 18 -7 -2 -8 4 -10 14 -6 10 4 14 2 10 -4 -3 -5 8
-25 26 -44 17 -19 30 -42 28 -52 -4 -30 35 -147 50 -147 12 0 44 -33 52 -53 3
-9 12 -17 19 -17 8 0 20 -9 28 -20 8 -11 22 -20 32 -20 9 0 19 -4 23 -9 6 -10
19 -12 78 -12 21 0 37 -5 37 -12 0 -8 4 -7 12 1 7 7 22 12 35 12 13 0 32 9 43
20 11 11 27 20 36 20 8 0 13 4 10 9 -3 5 1 14 9 21 8 7 15 9 15 4 0 -5 5 -1
11 9 6 9 15 15 20 11 6 -3 13 4 16 15 3 13 12 20 22 19 9 -2 15 3 13 11 -2 8
4 29 13 47 16 35 16 139 0 178 -5 11 -5 17 1 14 5 -4 10 6 11 20 1 25 0 26
-13 7 -17 -22 -19 -12 -3 17 6 12 7 18 1 14 -5 -3 -12 3 -15 14 -3 11 -1 18 4
14 5 -3 6 2 3 10 -3 9 -11 13 -17 9 -6 -3 -7 -1 -3 5 5 8 17 6 42 -5 30 -15
34 -21 29 -43 -4 -19 0 -32 17 -47 30 -28 96 -56 115 -49 9 4 23 -4 34 -18 23
-29 112 -50 214 -51 90 0 138 25 143 73 3 30 5 31 24 18 24 -17 79 -12 115 11
14 10 39 35 54 57 16 21 29 33 29 25 0 -8 32 -31 71 -51 38 -20 69 -39 67 -44
-8 -20 213 -1 246 22 11 8 30 14 43 14 12 0 24 4 27 9 3 4 38 16 78 26 40 9
98 28 128 42 53 24 262 147 347 205 23 15 46 28 52 28 6 0 11 5 11 10 0 6 7
10 15 10 8 0 15 4 15 9 0 5 17 11 38 15 52 8 108 49 123 90 12 33 14 34 76 38
34 2 68 9 73 14 7 7 4 10 -12 10 -19 -1 -24 5 -26 31 -2 17 4 45 12 61 8 16
13 32 10 35 -13 13 47 39 77 33 16 -3 40 -1 52 6 12 6 29 14 37 18 11 5 17 30
21 86 5 84 11 105 41 144 17 21 18 35 12 105 -6 73 -25 145 -38 145 -3 0 -3
-20 0 -45 15 -106 -72 -314 -167 -402 -30 -28 -177 -96 -255 -119 -78 -22
-204 -21 -280 2 l-59 18 128 7 c122 6 131 8 205 45 99 49 205 152 252 244 44
87 51 179 21 277 -11 39 -29 81 -39 94 -10 13 -31 45 -46 72 -18 31 -40 54
-66 67 -23 12 -40 28 -41 38 0 9 -4 52 -7 94 -7 73 -6 77 15 87 49 22 124 152
168 291 51 161 44 290 -22 428 -39 84 -52 91 -23 15 45 -120 35 -302 -24 -408
-44 -79 -59 -83 -49 -13 14 94 6 200 -21 280 -53 159 -133 258 -293 365 -121
81 -186 104 -353 127 -76 10 36 47 141 47 148 -1 289 -47 394 -126 79 -59 81
-61 55 -31 -41 46 -160 113 -242 137 -43 13 -78 28 -78 35 0 7 12 22 28 33 21
16 23 20 9 21 -10 0 -22 12 -27 26 -18 46 -12 74 25 108 19 19 35 40 34 47 0
10 -2 11 -6 2 -10 -26 -31 -12 -47 30 -20 53 -20 71 0 91 14 15 13 16 -15 16
-34 0 -39 11 -16 30 26 21 16 33 -12 15 -26 -18 -27 -18 -55 14 -15 17 -34 52
-40 76 -13 49 -19 53 -42 29 -22 -21 -20 -37 8 -92 37 -72 62 -94 98 -87 l30
7 -16 -31 c-21 -40 -20 -69 5 -115 20 -38 20 -38 0 -60 -10 -11 -24 -37 -29
-56 -8 -30 -10 -23 -8 45 2 137 -63 281 -154 343 l-35 23 -5 -23 c-5 -20 -7
-21 -13 -5 -9 23 -72 50 -98 42 -13 -5 -19 -14 -17 -28 2 -16 15 -24 48 -33
43 -12 44 -12 12 -13 -18 -1 -42 4 -53 9 -24 14 -25 52 0 74 16 15 25 16 59 6
58 -15 122 10 122 49 0 15 -3 21 -8 14 -31 -49 -199 9 -179 62 8 18 -4 20 -21
3 -19 -19 -14 -53 11 -80 l24 -26 -44 -6 c-24 -3 -54 -1 -68 6 l-24 11 19 25
c11 13 20 32 20 41 0 10 -3 12 -8 5 -13 -20 -49 -33 -104 -40 -43 -5 -56 -3
-67 10 -11 13 -11 19 -1 31 20 24 -6 18 -30 -7 -27 -30 -25 -62 6 -87 l27 -21
-22 -19 c-28 -25 -46 -18 -61 22 l-12 32 -11 -25 -11 -25 -4 28 c-4 32 -23 35
-60 8 -29 -21 -69 -81 -54 -81 5 0 31 12 58 26 39 20 44 22 24 5 -26 -21 -72
-46 -101 -55 -10 -3 -22 -25 -30 -55 -11 -44 -15 -50 -34 -45 -31 8 -52 -22
-71 -99 -16 -62 -16 -68 0 -92 17 -26 17 -27 -8 -50 -15 -14 -28 -40 -32 -64
-4 -23 -16 -48 -30 -60 -13 -12 -24 -19 -24 -16 0 3 -9 -3 -20 -12 -11 -10
-20 -21 -20 -25 0 -5 -11 -26 -25 -48 -14 -22 -25 -47 -25 -55 0 -9 -4 -14 -8
-11 -5 3 -9 -9 -9 -25 0 -17 -6 -34 -13 -39 -7 -4 -10 -15 -7 -24 3 -8 3 -18
-2 -20 -4 -3 -4 -38 0 -77 5 -44 4 -77 -1 -84 -6 -7 -11 -24 -12 -39 -1 -14
-6 -26 -11 -26 -4 0 -6 -4 -3 -9 3 -4 -3 -16 -13 -25 -17 -16 -20 -15 -44 14
-59 69 -59 171 -1 215 63 48 88 132 60 200 -19 45 -13 69 55 230 55 132 80
235 86 357 4 79 2 119 -10 160 -9 29 -18 75 -20 102 -3 27 -10 52 -17 56 -6 4
-23 31 -36 61 -14 29 -41 72 -59 95 -34 41 -146 124 -168 124 -6 0 0 -7 13
-17 45 -30 82 -67 121 -125 54 -78 75 -193 59 -323 -11 -90 -35 -182 -51 -199
-5 -6 -9 -15 -9 -22 0 -7 -17 -50 -39 -96 -61 -132 -67 -153 -53 -191 7 -18
12 -41 12 -50 0 -8 9 -18 19 -22 38 -12 46 -33 24 -63 -11 -15 -31 -48 -44
-72 l-24 -45 -5 64 c-3 39 -10 66 -18 69 -6 2 -34 -19 -61 -47 -27 -28 -52
-51 -55 -51 -26 0 -53 114 -61 254 -3 66 -22 200 -45 321 -5 28 -14 86 -20
130 -6 44 -15 94 -20 110 -5 17 -18 66 -29 110 -27 110 -33 123 -80 180 -22
27 -41 53 -41 57 0 12 63 53 101 66 49 17 111 14 194 -8 39 -10 71 -17 73 -15
8 7 -100 36 -168 45 -86 11 -106 11 -174 -1z m-826 -469 c12 -42 12 -147 0
-175 -6 -14 -9 6 -9 60 -1 44 -8 105 -16 135 -12 48 -12 53 1 35 8 -10 19 -35
24 -55z m2185 -110 c10 -11 15 -26 11 -36 -6 -16 -8 -15 -22 4 -29 41 -134 16
-107 -26 7 -12 23 -17 53 -16 38 1 41 0 25 -13 -11 -7 -34 -13 -52 -13 -26 0
-36 6 -45 24 -14 33 -6 52 34 76 42 25 80 25 103 0z m-205 -80 c18 -18 27 -40
16 -40 -2 0 -16 6 -31 14 -34 18 -68 5 -85 -32 -10 -22 -9 -28 6 -39 15 -11
21 -10 41 9 27 25 33 5 6 -24 -32 -35 -73 -16 -73 35 0 20 11 40 34 63 39 39
58 42 86 14z m341 -67 c34 4 43 0 95 -46 86 -77 111 -151 84 -249 -17 -60 -53
-95 -105 -103 -25 -3 -71 -15 -102 -26 -31 -10 -60 -16 -64 -12 -62 66 -79 97
-79 142 0 61 32 101 82 101 46 0 60 -12 56 -46 -2 -24 -7 -29 -26 -27 -15 2
-21 -1 -16 -8 4 -7 0 -9 -14 -5 -29 10 -36 -10 -12 -34 29 -29 84 -27 115 4
77 77 9 212 -104 210 -59 -1 -104 -25 -141 -75 -57 -79 -60 -206 -6 -286 l25
-36 -45 -29 c-25 -15 -84 -60 -132 -98 l-87 -70 -11 26 c-9 21 -8 35 4 65 17
44 10 120 -14 140 -13 10 -12 15 8 36 18 20 23 36 23 81 0 31 -2 64 -5 72 -3
9 3 16 18 18 26 4 62 73 62 118 0 20 5 24 29 24 33 0 91 57 91 90 0 22 22 39
28 22 2 -7 25 -12 58 -12 41 0 58 5 71 19 15 18 18 19 46 4 19 -9 44 -13 68
-10z m-443 -115 c21 -21 13 -28 -26 -22 -43 7 -72 -12 -72 -47 0 -29 28 -35
54 -10 32 30 40 26 20 -9 -23 -38 -41 -44 -70 -25 -51 33 -14 125 50 125 17 0
37 -5 44 -12z m462 -59 c6 -10 10 -26 10 -36 -1 -13 -5 -9 -17 12 -8 17 -25
41 -37 54 l-21 24 28 -18 c15 -10 32 -26 37 -36z m-181 -197 c40 -51 54 -73
48 -79 -11 -10 -35 5 -62 42 -30 39 -44 113 -29 162 6 24 9 19 14 -35 5 -42
14 -72 29 -90z m-2317 58 c-6 -16 -14 -62 -18 -102 -8 -91 -13 -101 -38 -82
-18 13 -18 18 -6 71 13 62 62 171 68 153 2 -6 -1 -24 -6 -40z m1983 30 c4 -6
-5 -10 -20 -10 -17 0 -29 -8 -37 -25 -9 -21 -7 -28 13 -49 l24 -25 17 22 c19
24 24 8 8 -24 -6 -11 -21 -19 -36 -19 -19 0 -28 8 -40 35 -18 44 -18 47 7 79
21 26 53 34 64 16z m-1761 -296 c16 -56 35 -104 57 -149 7 -15 4 -13 -12 5
-12 14 -40 63 -62 110 -34 72 -41 97 -45 165 -3 63 0 89 14 120 l18 40 7 -116
c4 -64 14 -142 23 -175z m576 238 c0 -4 -7 -18 -16 -30 -10 -14 -14 -32 -10
-48 6 -21 3 -23 -16 -20 -25 3 -25 4 -10 44 6 15 13 35 16 45 5 17 36 25 36 9z
m2006 -37 c14 -11 15 -14 2 -9 -9 3 -26 1 -37 -6 -23 -12 -28 -1 -9 18 15 15
20 15 44 -3z m-3061 -54 c50 -17 113 -45 140 -61 28 -16 71 -40 96 -54 48 -26
154 -130 255 -251 33 -38 98 -108 146 -155 l88 -86 -93 3 -92 4 -95 99 c-189
198 -381 317 -587 365 -141 33 -163 43 -175 75 -6 18 -23 34 -49 45 -82 37
-28 55 151 51 110 -3 136 -7 215 -35z m1168 18 c55 -42 68 -170 19 -177 -12
-2 -22 -2 -22 0 0 2 -16 42 -35 88 -19 47 -33 91 -30 97 7 19 39 16 68 -8z
m1047 -45 c0 -3 -7 -12 -15 -20 -18 -18 -20 -55 -3 -72 20 -20 28 -14 28 25 0
26 3 34 11 26 17 -17 7 -97 -13 -101 -47 -9 -78 89 -41 130 16 17 33 24 33 12z
m-462 -78 c4 -50 -8 -63 -48 -46 -24 10 -29 17 -24 34 9 31 35 57 53 54 11 -2
17 -16 19 -42z m380 -56 c13 -34 35 -51 75 -60 24 -6 26 -8 9 -9 -21 -1 -23
-5 -21 -51 l3 -51 -90 -90 c-97 -98 -178 -147 -255 -155 l-44 -5 35 20 c75 44
175 137 203 189 32 59 56 161 58 247 1 53 2 56 9 25 4 -19 12 -46 18 -60z
m-1138 61 c0 -10 -7 -32 -15 -47 l-15 -29 0 32 c0 37 9 63 21 63 5 0 9 -8 9
-19z m500 -106 c7 -9 24 -39 37 -68 13 -29 39 -68 57 -87 18 -19 41 -55 51
-80 19 -46 47 -88 85 -128 12 -13 20 -25 17 -28 -2 -3 -40 -6 -83 -7 -44 -2
-71 -1 -62 1 15 3 13 8 -10 42 -40 58 -57 52 -54 -16 1 -21 -4 -22 -141 -29
-78 -3 -248 -5 -377 -3 l-235 3 291 3 291 2 6 128 c8 152 27 250 53 269 24 17
59 17 74 -2z m-1736 -124 c6 -10 84 -30 126 -34 14 -1 43 -16 64 -33 l37 -31
-26 -7 c-14 -4 -23 -11 -20 -16 3 -5 -3 -11 -12 -14 -10 -4 -27 -25 -37 -48
l-19 -41 -20 39 c-33 65 -66 102 -111 123 -50 25 -134 28 -175 6 -33 -16 -77
-65 -86 -96 -10 -30 13 -77 44 -88 24 -9 23 -9 -16 -10 -55 -1 -63 -17 -63
-126 0 -66 -3 -85 -12 -79 -10 6 -10 4 0 -7 8 -9 11 -51 10 -148 l-2 -136 -3
133 c-2 82 -7 132 -14 132 -6 0 -7 -4 -4 -10 9 -14 1 -13 -38 6 l-34 16 -2
166 c-1 92 -4 168 -7 171 -2 2 -4 -63 -4 -145 0 -82 -4 -155 -9 -163 -25 -40
-85 58 -84 139 1 56 44 155 75 171 13 6 34 22 48 35 47 44 159 88 240 95 121
9 148 10 154 0z m3296 -60 c68 -26 146 -87 176 -137 30 -51 30 -64 2 -66 -13
-1 9 -4 47 -8 39 -3 -281 -6 -710 -6 -429 0 -608 2 -398 3 317 3 381 6 377 17
-9 23 114 123 210 171 82 42 93 45 167 45 53 0 95 -6 129 -19z m-3867 -99
c-10 -109 35 -258 100 -330 15 -16 18 -25 9 -34 -15 -15 -61 5 -95 40 -34 35
-75 127 -83 183 -10 70 39 221 65 204 5 -3 7 -31 4 -63z m605 22 c17 -20 36
-57 43 -83 7 -25 17 -49 23 -53 6 -4 -11 -7 -39 -6 -27 0 -38 3 -23 5 l27 4
-16 52 c-8 29 -26 67 -39 85 -34 44 -13 41 24 -4z m-95 -32 c34 -23 56 -52 57
-74 0 -16 -10 -18 -82 -18 -82 0 -122 10 -99 24 6 4 8 18 5 32 -4 14 -1 31 6
39 17 21 79 19 113 -3z m454 -108 c-3 -3 -12 -4 -19 -1 -8 3 -5 6 6 6 11 1 17
-2 13 -5z m291 -1 c-43 -2 -113 -2 -155 0 -43 1 -8 3 77 3 85 0 120 -2 78 -3z
m-688 -448 c0 -287 -1 -314 -16 -308 -9 3 -38 7 -63 7 l-46 1 -3 308 -2 307
65 0 65 0 0 -315z m931 287 c100 -44 153 -122 166 -243 l6 -62 20 53 c15 41
28 58 65 81 64 41 107 52 169 46 60 -6 135 -45 155 -80 7 -12 21 -42 30 -67
11 -31 17 -38 17 -22 1 12 9 30 19 40 9 9 22 29 29 44 29 64 178 108 268 78
48 -16 121 -82 129 -118 4 -15 9 -35 12 -45 5 -16 3 -17 -16 -7 -13 7 -37 9
-60 5 -37 -6 -39 -5 -55 29 -28 58 -108 69 -159 21 -65 -60 -51 -201 24 -240
55 -28 95 -17 129 38 19 30 23 32 73 31 67 -2 72 -21 26 -89 -121 -179 -400
-90 -409 130 -1 17 -3 23 -6 14 -3 -13 -25 -17 -116 -22 -62 -4 -136 -7 -164
-7 -59 0 -65 -9 -37 -61 22 -44 76 -65 125 -49 26 9 39 20 43 36 6 22 11 24
71 24 l66 0 -17 -32 c-47 -92 -100 -128 -189 -128 -54 0 -125 28 -164 63 -34
31 -71 115 -71 162 0 47 -10 39 -39 -37 -15 -37 -39 -72 -66 -97 -79 -73 -88
-75 -298 -79 l-188 -4 3 312 3 312 180 -5 c152 -4 187 -8 226 -25z m2191 -59
l3 -68 38 2 c35 1 38 0 33 -20 -3 -12 -6 -34 -6 -49 0 -25 -4 -28 -33 -28
l-34 0 3 -132 c2 -122 4 -134 23 -147 21 -14 26 -38 15 -79 -6 -21 -11 -23
-48 -17 -99 16 -120 59 -114 241 l4 133 -36 3 c-34 3 -35 5 -38 46 -3 42 -3
42 30 42 l33 0 -3 55 c-5 81 -2 85 67 85 l60 0 3 -67z m-2964 -93 c-3 -16 -3
-30 -2 -30 2 0 20 11 40 25 91 62 227 36 269 -52 21 -43 22 -383 1 -383 -7 0
-34 3 -59 6 l-45 6 -4 159 c-3 149 -4 160 -26 181 -16 17 -33 22 -64 22 -35
-1 -48 -8 -75 -38 l-33 -36 0 -152 0 -153 -60 3 -59 4 -3 228 -3 229 50 4 c28
2 56 4 64 5 9 1 12 -7 9 -28z m2220 -6 c55 -34 93 -99 100 -174 l4 -47 -38 -6
c-22 -4 -96 -7 -166 -7 -73 0 -129 -4 -133 -10 -3 -5 2 -26 11 -46 33 -70 138
-84 172 -23 16 27 20 29 85 29 l67 0 -25 -50 c-62 -123 -255 -151 -358 -52
-85 80 -101 259 -30 342 70 83 213 103 311 44z m242 1 l0 -34 24 24 c31 31 98
48 155 40 55 -8 105 -54 120 -111 17 -64 24 -186 17 -275 l-7 -84 -59 3 -59 4
-3 163 c-4 190 -10 205 -83 205 -87 0 -104 -42 -105 -245 l0 -130 -60 3 -60 4
0 228 c0 256 -6 237 78 239 42 1 42 1 42 -34z m-2933 -442 c-1 -49 -3 -9 -3
87 0 96 2 136 3 88 2 -49 2 -127 0 -175z m3602 192 c2 -10 12 -26 23 -35 17
-14 19 -20 9 -38 -6 -12 -16 -22 -21 -22 -16 0 -11 -37 5 -44 24 -9 18 -36 -8
-36 -34 0 -47 19 -47 67 0 29 -5 45 -17 52 -16 8 -16 12 -3 38 25 47 51 55 59
18z m160 -41 c39 -50 17 -134 -34 -134 -64 0 -93 38 -81 105 6 28 13 36 39 44
49 14 54 13 76 -15z m76 16 c3 -6 15 -5 30 2 22 10 29 8 50 -12 50 -47 19
-140 -47 -140 -24 0 -28 -4 -28 -30 0 -23 -5 -30 -19 -30 -23 0 -31 19 -31 73
0 112 21 176 45 137z m-305 -118 c0 -35 -9 -45 -27 -31 -21 18 -17 59 7 59 15
0 20 -7 20 -28z m-3852 -124 c-44 -136 -59 -216 -56 -303 2 -69 8 -101 26
-136 42 -85 20 -68 -45 36 -60 95 -63 237 -7 346 21 43 65 89 85 89 4 0 3 -15
-3 -32z m212 -348 c0 -194 -1 -200 -20 -200 -30 0 -105 74 -135 133 -34 69
-33 121 4 178 38 60 76 89 117 89 l34 0 0 -200z m4109 144 c28 -36 43 -118 32
-178 -6 -35 -19 -58 -45 -84 l-35 -36 -24 22 c-49 46 -105 0 -94 -75 5 -30 3
-33 -41 -50 -31 -12 -74 -18 -127 -18 -67 0 -89 5 -136 28 -46 22 -58 33 -61
56 -3 18 3 37 14 51 11 14 18 17 18 9 0 -11 2 -11 10 1 8 13 10 13 10 -2 0
-20 48 -48 82 -48 58 0 118 71 118 140 0 39 -24 95 -59 135 l-26 30 30 -26
c38 -33 83 -45 91 -25 3 9 14 13 27 10 11 -2 24 1 27 6 3 5 21 12 40 14 49 6
62 13 85 41 26 31 39 31 64 -1z m-3598 -78 c12 -28 19 -64 19 -113 0 -68 -2
-74 -42 -134 -34 -48 -52 -65 -83 -75 -45 -15 -55 -17 -39 -6 24 15 104 145
115 185 11 40 7 123 -7 176 -11 38 15 15 37 -33z m2471 -26 c30 -27 0 -28 -33
0 -21 17 -21 19 -6 20 10 0 27 -9 39 -20z m53 10 c3 -5 15 -10 25 -10 11 0 24
-9 30 -20 9 -17 8 -20 -10 -20 -35 0 -79 29 -80 53 0 11 28 9 35 -3z m-924
-22 c33 -28 40 -50 54 -169 31 -275 31 -361 -1 -404 -19 -26 -40 -13 -70 45
-54 104 -73 291 -45 440 19 96 31 113 62 88z m1348 -32 c-26 -96 41 -227 148
-291 43 -25 51 -46 14 -35 -42 12 -68 28 -113 68 -71 64 -103 161 -78 238 22
69 47 86 29 20z m-1765 10 c9 -36 -18 -122 -75 -242 -60 -127 -93 -205 -121
-289 -12 -37 -33 -73 -54 -93 -19 -18 -41 -47 -50 -65 -9 -18 -23 -40 -31 -49
-8 -9 -12 -21 -8 -27 3 -6 0 -9 -7 -6 -7 3 -36 -13 -63 -36 -44 -37 -50 -39
-53 -22 -2 11 20 63 48 116 28 52 62 128 75 168 28 82 40 103 101 174 35 41
164 278 164 301 0 14 51 94 59 94 5 0 11 -11 15 -24z m2024 -15 c17 -20 15
-66 -3 -81 -9 -7 -18 -10 -22 -6 -3 3 -1 6 5 6 17 0 15 17 -6 37 -10 10 -19
33 -20 52 -2 31 -1 33 15 20 10 -7 24 -20 31 -28z m-1043 -81 c24 -31 55 -64
69 -74 25 -16 36 -59 18 -70 -13 -8 -161 143 -183 186 -10 20 -19 42 -19 47 0
22 73 -35 115 -89z m422 49 c60 -41 94 -112 60 -125 -13 -5 -89 32 -139 68
-21 14 -28 28 -28 52 0 30 3 33 32 34 19 0 47 -10 75 -29z m-174 -28 c-5 -37
-3 -41 28 -60 19 -12 46 -21 61 -21 26 0 68 -43 68 -69 0 -20 17 -11 29 15 12
26 12 26 33 8 25 -22 48 -74 48 -107 0 -27 -36 -70 -53 -64 -7 2 -22 30 -34
63 -19 52 -22 55 -22 27 -1 -17 -8 -39 -17 -48 -14 -14 -19 -14 -38 -2 -11 8
-32 35 -45 60 -19 39 -22 51 -13 77 18 50 -20 40 -59 -16 -45 -66 -56 -47 -34
63 16 84 28 113 45 113 5 0 6 -18 3 -39z m-1893 -76 c0 -3 -19 -18 -42 -35
-41 -30 -93 -41 -86 -18 9 25 128 74 128 53z m-196 -120 c-4 -8 -16 -15 -29
-15 -23 0 -85 -41 -122 -81 -12 -13 -34 -51 -50 -84 -23 -51 -27 -73 -28 -145
0 -105 20 -149 109 -233 l61 -59 -39 6 c-72 10 -147 82 -178 170 -27 78 -24
198 6 261 31 68 90 129 156 164 61 33 123 42 114 16z m157 -25 c17 0 90 -73
113 -114 27 -46 41 -96 28 -96 -5 0 -14 12 -21 27 -26 57 -87 137 -125 166
-23 16 -33 27 -23 23 10 -3 23 -6 28 -6z m1883 -46 c22 -8 20 -21 -4 -29 -11
-4 -31 -23 -45 -43 -30 -45 -33 -24 -4 35 21 44 26 47 53 37z m117 -35 c18
-18 21 -30 17 -85 -6 -96 -45 -130 -92 -79 -42 46 -42 120 1 167 21 24 48 23
74 -3z m133 -53 c23 -48 20 -86 -9 -129 -31 -45 -62 -49 -71 -9 -3 15 -7 32
-9 38 -6 20 16 98 32 116 24 26 39 22 57 -16z m-3279 -17 c14 -14 -16 -10 -50
6 l-30 14 35 -6 c19 -3 39 -10 45 -14z m4222 -5 c12 -3 24 -12 27 -19 4 -10
-3 -12 -29 -8 -45 7 -94 -13 -101 -43 -8 -33 2 -44 43 -44 30 0 34 -2 23 -15
-16 -19 -64 -19 -80 0 -18 21 -4 82 25 111 24 24 50 29 92 18z m-291 -60 c36
-17 50 -31 41 -41 -3 -3 -18 4 -33 16 -15 12 -41 21 -60 21 -18 0 -36 5 -39
10 -10 16 53 12 91 -6z m-3363 -126 c3 -40 5 -74 3 -75 -9 -10 -40 56 -38 82
7 89 27 85 35 -7z m492 -16 c15 -12 22 -22 15 -22 -20 0 -70 60 -70 84 1 17 3
15 14 -10 8 -17 26 -40 41 -52z m2032 37 c64 -31 61 -39 -10 -32 -61 5 -65 4
-85 -22 -45 -57 -13 -99 39 -49 34 33 39 16 9 -33 -23 -39 -41 -41 -70 -11
-24 26 -25 34 -4 95 27 81 45 89 121 52z m-1433 -28 c23 -25 12 -86 -22 -120
-24 -24 -26 -24 -33 -6 -13 33 -10 84 6 115 18 35 26 37 49 11z m-1135 -79 c0
-24 -1 -25 -9 -7 -12 28 -12 47 0 40 6 -3 10 -18 9 -33z m2597 -67 c-24 -36
-49 -47 -72 -31 -15 12 -16 16 -5 29 7 9 19 13 27 10 8 -3 24 6 37 23 18 24
22 25 25 11 2 -10 -3 -29 -12 -42z m-1548 -7 c18 -18 15 -27 -7 -21 -27 7 -58
-13 -76 -47 -14 -27 -12 -60 4 -60 4 0 17 14 30 31 28 38 38 32 16 -10 -8 -17
-11 -31 -6 -31 5 0 15 16 22 35 13 36 29 47 29 20 0 -25 -60 -85 -86 -85 -28
0 -39 31 -31 92 9 67 70 111 105 76z m-964 -27 c3 -5 -5 -11 -19 -13 -20 -4
-23 -3 -14 8 13 16 25 18 33 5z m58 -28 c27 -28 54 -83 40 -83 -10 1 -83 110
-73 110 4 0 19 -12 33 -27z m2269 17 c27 -15 24 -32 -5 -24 -13 3 -41 1 -62
-5 -46 -13 -65 0 -33 23 27 18 71 21 100 6z m-258 -89 c19 -19 3 -19 -53 0
l-55 19 48 -4 c27 -2 54 -9 60 -15z m245 -36 c12 -11 -30 -35 -63 -35 -36 0
-71 22 -61 38 7 11 112 9 124 -3z m-1540 -7 c19 -19 14 -26 -13 -20 -13 2 -35
2 -47 -1 -26 -7 -63 -61 -52 -78 6 -11 52 -8 89 5 14 5 11 0 -10 -18 -35 -30
-80 -34 -94 -8 -12 23 11 91 40 115 24 20 69 23 87 5z m-510 -37 c24 -13 42
-41 42 -67 0 -13 -11 -7 -42 24 -23 24 -52 45 -65 48 -12 4 -21 10 -18 14 6 9
50 -1 83 -19z m259 -36 c11 -8 23 -23 26 -34 5 -19 3 -19 -31 4 -20 14 -43 25
-52 25 -8 0 -22 5 -30 10 -11 7 -4 10 25 10 22 0 50 -7 62 -15z m1601 9 c12
-4 22 -11 22 -16 0 -5 -5 -6 -12 -2 -7 4 -28 11 -48 15 -26 5 -29 7 -10 8 14
0 35 -2 48 -5z m-1670 -133 c-11 -4 -48 28 -48 41 0 5 13 -1 28 -14 16 -13 25
-25 20 -27z m-91 24 c8 -22 -6 -33 -17 -15 -13 20 -12 30 0 30 6 0 13 -7 17
-15z"/>
<path d="M4148 2943 c6 -2 18 -2 25 0 6 3 1 5 -13 5 -14 0 -19 -2 -12 -5z"/>
<path d="M4328 2943 c6 -2 18 -2 25 0 6 3 1 5 -13 5 -14 0 -19 -2 -12 -5z"/>
<path d="M1673 2563 c4 -70 7 -161 7 -202 l0 -73 99 4 c87 3 102 7 132 30 67
51 92 203 46 282 -39 69 -64 81 -184 84 l-106 4 6 -129z"/>
<path d="M2300 2547 c-21 -10 -69 -84 -59 -90 2 -2 50 -1 107 1 94 4 102 5
102 24 0 11 -13 33 -29 49 -32 32 -77 38 -121 16z"/>
<path d="M3219 2537 c-18 -12 -39 -34 -46 -47 l-12 -25 82 -7 c98 -9 127 -4
127 21 0 33 -11 51 -41 66 -39 21 -71 19 -110 -8z"/>
<path d="M4400 2290 c-16 -16 -18 -25 -10 -40 15 -28 48 -25 62 5 8 19 8 28
-2 40 -17 20 -26 19 -50 -5z"/>
<path d="M4557 2303 c-4 -3 -7 -19 -7 -34 0 -19 6 -30 21 -34 31 -10 48 21 33
59 -6 16 -35 22 -47 9z"/>
<path d="M3647 1713 c-14 -13 -6 -53 12 -62 21 -12 31 -5 31 19 0 20 -34 53
-43 43z"/>
<path d="M3710 1645 c0 -14 5 -25 10 -25 6 0 10 11 10 25 0 14 -4 25 -10 25
-5 0 -10 -11 -10 -25z"/>
<path d="M3609 1533 c-8 -21 -8 -34 3 -52 17 -32 31 -32 42 0 21 60 -23 109
-45 52z"/>
<path d="M3724 1515 c-9 -24 6 -87 19 -82 15 4 21 41 13 73 -7 27 -24 32 -32
9z"/>
<path d="M3534 1333 c-28 -30 -28 -30 -13 -72 15 -43 35 -39 59 11 33 68 1
112 -46 61z"/>
<path d="M3672 1298 c-14 -14 -16 -84 -3 -92 14 -9 32 21 38 64 6 42 -9 54
-35 28z"/>
<path d="M2064 1065 c-17 -40 -17 -52 -4 -60 11 -7 53 72 45 85 -12 19 -26 10
-41 -25z"/>
<path d="M3752 4250 c-12 -12 -22 -25 -22 -30 0 -16 86 -12 100 5 34 41 -37
63 -78 25z"/>
<path d="M4018 4245 c-10 -11 38 -55 60 -55 29 0 35 14 14 33 -19 18 -65 31
-74 22z"/>
<path d="M4250 4080 c0 -20 45 -79 53 -70 3 3 -2 22 -10 42 -16 41 -43 59 -43
28z"/>
<path d="M1068 3958 c-16 -16 -28 -33 -28 -37 0 -20 37 -50 65 -54 17 -1 46
-13 65 -25 19 -12 45 -22 58 -22 42 0 92 36 92 66 0 2 -15 4 -34 4 -19 0 -47
5 -62 11 -28 10 -28 10 -9 -10 13 -16 14 -21 4 -21 -7 0 -38 26 -69 58 l-55
58 -27 -28z"/>
<path d="M4375 3900 c-7 -23 2 -60 16 -60 12 0 12 67 0 75 -5 3 -12 -4 -16
-15z"/>
<path d="M4380 3721 c-16 -30 -12 -53 8 -49 11 2 18 14 20 36 4 35 -12 43 -28
13z"/>
<path d="M603 3575 c0 -22 2 -30 4 -17 2 12 2 30 0 40 -3 9 -5 -1 -4 -23z"/>
<path d="M4894 1401 c-17 -10 -41 -32 -53 -47 -20 -25 -21 -29 -6 -32 21 -5
60 21 81 53 24 36 14 48 -22 26z"/>
</g>
</svg>
